<?xml version="1.0" encoding="UTF-8"?>
<svg width="118px" height="29px" viewBox="0 0 118 29" version="1.1" xmlns="http://www.w3.org/2000/svg" xmlns:xlink="http://www.w3.org/1999/xlink">
    <!-- Generator: Sketch 40.3 (33839) - http://www.bohemiancoding.com/sketch -->
    <title>logo</title>
    <desc>Created with Sketch.</desc>
    <defs></defs>
    <g id="Page-1" stroke="none" stroke-width="1" fill="none" fill-rule="evenodd">
        <g id="home" transform="translate(-653.000000, -138.000000)" fill="#FFFFFF">
            <g id="hero">
                <g id="logo" transform="translate(653.000000, 132.000000)">
                    <path d="M9.26953125,21.6816406 C9.32421902,21.2714823 9.30826866,20.9137385 9.22167969,20.6083984 C9.13509071,20.3030584 8.99153746,20.0319022 8.79101563,19.7949219 C8.59049379,19.5579415 8.34668112,19.3483082 8.05957031,19.1660156 C7.7724595,18.983723 7.45117365,18.8105477 7.09570313,18.6464844 C6.43944984,18.336587 5.81966438,17.9902363 5.23632813,17.6074219 C4.65299188,17.2246075 4.14713756,16.7871118 3.71875,16.2949219 C3.29036244,15.8027319 2.9599621,15.2444693 2.72753906,14.6201172 C2.49511603,13.9957651 2.40624973,13.2871133 2.4609375,12.4941406 C2.51562527,11.600907 2.73893033,10.8011103 3.13085938,10.0947266 C3.52278842,9.38834282 4.02636411,8.78906496 4.64160156,8.296875 C5.25683901,7.80468504 5.95865491,7.43099086 6.74707031,7.17578125 C7.53548571,6.92057164 8.35806863,6.80208324 9.21484375,6.8203125 C10.1080774,6.83854176 10.8987596,7.00943849 11.5869141,7.33300781 C12.2750685,7.65657714 12.8470029,8.09407276 13.3027344,8.64550781 C13.7584658,9.19694286 14.0979807,9.84407181 14.3212891,10.5869141 C14.5445975,11.3297563 14.6425783,12.129553 14.6152344,12.9863281 L10.7050781,12.9726562 C10.7233074,12.635415 10.7141929,12.3004574 10.6777344,11.9677734 C10.6412759,11.6350895 10.5592454,11.3320326 10.4316406,11.0585938 C10.3040358,10.7851549 10.1149101,10.5641284 9.86425781,10.3955078 C9.61360552,10.2268872 9.28320518,10.1380209 8.87304688,10.1289062 C8.51757635,10.1289062 8.19401188,10.1881504 7.90234375,10.3066406 C7.61067563,10.4251308 7.35546984,10.5937489 7.13671875,10.8125 C6.91796766,11.0312511 6.73795644,11.2864569 6.59667969,11.578125 C6.45540294,11.8697931 6.36653664,12.1842431 6.33007813,12.5214844 C6.28450498,12.8769549 6.32779882,13.1936835 6.45996094,13.4716797 C6.59212306,13.7496759 6.77213428,14.0003244 7,14.2236328 C7.22786572,14.4469412 7.48762875,14.6451814 7.77929688,14.8183594 C8.070965,14.9915373 8.3580715,15.1419264 8.640625,15.2695312 C9.34245143,15.5976579 9.98502313,15.959959 10.5683594,16.3564453 C11.1516956,16.7529317 11.6461568,17.204099 12.0517578,17.7099609 C12.4573588,18.2158228 12.7626943,18.7900358 12.9677734,19.4326172 C13.1728526,20.0751985 13.2434899,20.815751 13.1796875,21.6542969 C13.1158851,22.5566451 12.8994159,23.3609991 12.5302734,24.0673828 C12.161131,24.7737666 11.6826201,25.3662085 11.0947266,25.8447266 C10.506833,26.3232446 9.82552471,26.6878243 9.05078125,26.9384766 C8.27603779,27.1891289 7.45117625,27.3053386 6.57617188,27.2871094 C5.61913584,27.2688801 4.7646522,27.0911475 4.01269531,26.7539062 C3.26073843,26.416665 2.62728122,25.9563831 2.11230469,25.3730469 C1.59732815,24.7897106 1.21224086,24.0992878 0.95703125,23.3017578 C0.701821641,22.5042278 0.592447734,21.6406296 0.62890625,20.7109375 L4.56640625,20.7246094 C4.53906236,21.1621116 4.54817686,21.5790996 4.59375,21.9755859 C4.63932314,22.3720723 4.74641843,22.7207016 4.91503906,23.0214844 C5.0836597,23.3222671 5.32291512,23.5615225 5.6328125,23.7392578 C5.94270988,23.9169931 6.35286203,24.0058594 6.86328125,24.0058594 C7.5742223,23.9967447 8.13248495,23.7779969 8.53808594,23.3496094 C8.94368692,22.9212218 9.18749959,22.3652378 9.26953125,21.6816406 Z M20.8938418,20 L19.6770449,27 L15.7532168,27 L19.1985293,7.09375 L25.5832949,7.10742188 C26.5038724,7.13476576 27.3127836,7.32161285 28.0100527,7.66796875 C28.7073219,8.01432465 29.2860921,8.47688513 29.7463809,9.05566406 C30.2066696,9.634443 30.53707,10.311194 30.7375918,11.0859375 C30.9381136,11.860681 31.0019151,12.6900997 30.9289981,13.5742188 C30.8378518,14.5585987 30.5985963,15.4495403 30.2112246,16.2470703 C29.8238529,17.0446003 29.3157199,17.72363 28.6868106,18.2841797 C28.0579012,18.8447294 27.3264632,19.2731105 26.4924746,19.5693359 C25.6584861,19.8655614 24.7493155,20.0136719 23.7649356,20.0136719 L20.8938418,20 Z M21.4680606,16.6503906 L23.9973574,16.6777344 C24.4439742,16.6686197 24.8427333,16.5843107 25.1936465,16.4248047 C25.5445597,16.2652987 25.8430593,16.0465509 26.0891543,15.7685547 C26.3352493,15.4905585 26.5334895,15.166994 26.6838809,14.7978516 C26.8342722,14.4287091 26.9368103,14.0299501 26.9914981,13.6015625 C27.0279566,13.2825505 27.0416283,12.9453143 27.0325137,12.5898438 C27.023399,12.2343732 26.9641548,11.9039729 26.8547793,11.5986328 C26.7454038,11.2932927 26.574507,11.0358083 26.342084,10.8261719 C26.109661,10.6165354 25.7974896,10.498047 25.4055606,10.4707031 L22.5481387,10.4433594 L21.4680606,16.6503906 Z M47.2290899,18.8242188 C47.1197143,19.5625037 46.9556534,20.2893844 46.7369024,21.0048828 C46.5181513,21.7203812 46.2447165,22.392575 45.9165899,23.0214844 C45.5884632,23.6503938 45.2010973,24.229164 44.7544805,24.7578125 C44.3078637,25.286461 43.7997307,25.739907 43.2300664,26.1181641 C42.6604021,26.4964212 42.0269449,26.7880849 41.3296758,26.9931641 C40.6324067,27.1982432 39.869068,27.2916668 39.0396367,27.2734375 C38.246664,27.2552082 37.5425695,27.1321626 36.927332,26.9042969 C36.3120946,26.6764312 35.7743396,26.3665384 35.3140508,25.9746094 C34.853762,25.5826803 34.473232,25.1223985 34.1724492,24.59375 C33.8716665,24.0651015 33.6415255,23.4908885 33.4820195,22.8710938 C33.3225135,22.251299 33.2268114,21.5996128 33.1949102,20.9160156 C33.163009,20.2324185 33.1926311,19.5397171 33.2837774,18.8378906 L33.7896367,15.5292969 C33.8990123,14.7818973 34.0630731,14.0459021 34.2818242,13.3212891 C34.5005753,12.5966761 34.7740101,11.9085319 35.1021367,11.2568359 C35.4302634,10.60514 35.8176293,10.0035835 36.2642461,9.45214844 C36.7108629,8.90071339 37.2212745,8.42675979 37.7954961,8.03027344 C38.3697177,7.63378708 39.0100108,7.32845159 39.7163945,7.11425781 C40.4227783,6.90006403 41.1997887,6.80208324 42.0474492,6.8203125 C42.8495366,6.83854176 43.560467,6.96842327 44.1802617,7.20996094 C44.8000565,7.4514986 45.3355329,7.77962032 45.786707,8.19433594 C46.2378812,8.60905155 46.6092967,9.09439826 46.9009649,9.65039062 C47.192633,10.206383 47.4136594,10.8033822 47.5640508,11.4414062 C47.7144422,12.0794303 47.8010298,12.7470668 47.8238164,13.4443359 C47.846603,14.141605 47.8124236,14.8365851 47.7212774,15.5292969 L47.2290899,18.8242188 Z M63.7479317,10.4433594 L58.9764473,10.4433594 L56.1053535,27 L52.1678535,27 L55.0389473,10.4433594 L50.3358223,10.4433594 L50.9237129,7.09375 L64.3358223,7.09375 L63.7479317,10.4433594 Z M79.6788828,10.4433594 L74.9073985,10.4433594 L72.0363047,27 L68.0988047,27 L70.9698985,10.4433594 L66.2667735,10.4433594 L66.8546641,7.09375 L80.2667735,7.09375 L79.6788828,10.4433594 Z M91.4809278,18.3867188 L85.4106153,18.3867188 L84.4945996,23.6640625 L91.6860059,23.6640625 L91.0981153,27 L79.9965528,27 L83.4418653,7.09375 L94.5297559,7.09375 L93.9418653,10.4433594 L86.7914746,10.4433594 L85.9711621,15.1464844 L92.0551465,15.1464844 L91.4809278,18.3867188 Z M101.478285,19.7265625 L99.4821914,19.7265625 L98.2243789,27 L94.3005508,27 L97.7458633,7.09375 L103.761488,7.10742188 C104.654722,7.13476576 105.445404,7.28971213 106.133559,7.57226562 C106.821713,7.85481912 107.395926,8.24902091 107.856215,8.75488281 C108.316504,9.26074472 108.649183,9.87141569 108.854262,10.5869141 C109.059341,11.3024124 109.125421,12.1067664 109.052504,13 C108.943128,14.2851627 108.589942,15.4153597 107.992934,16.390625 C107.395925,17.3658903 106.509541,18.1315076 105.333754,18.6875 L107.329848,26.78125 L107.329848,27 L103.11891,27 L101.478285,19.7265625 Z M100.05641,16.3769531 L102.120863,16.4042969 C102.56748,16.3951822 102.963961,16.3085946 103.310316,16.1445312 C103.656672,15.9804679 103.952893,15.7594415 104.198988,15.4814453 C104.445083,15.2034491 104.643324,14.8798847 104.793715,14.5107422 C104.944106,14.1415997 105.046644,13.7473979 105.101332,13.328125 C105.146905,13.009113 105.167413,12.6855485 105.162856,12.3574219 C105.158298,12.0292952 105.103611,11.728517 104.998793,11.4550781 C104.893975,11.1816393 104.732193,10.953777 104.513441,10.7714844 C104.29469,10.5891918 103.989355,10.4843751 103.597426,10.4570312 L101.095473,10.4433594 L100.05641,16.3769531 Z M115.016658,20.875 L111.885799,20.875 L113.840877,7.09375 L117.846736,7.09375 L115.016658,20.875 Z M110.641658,25.1953125 C110.641658,24.8945297 110.691788,24.6119805 110.792049,24.3476562 C110.89231,24.083332 111.033584,23.8531911 111.215877,23.6572266 C111.39817,23.461262 111.616917,23.3040371 111.872127,23.1855469 C112.127337,23.0670567 112.405329,23.0032553 112.706111,22.9941406 C113.006894,22.9941406 113.280329,23.046549 113.526424,23.1513672 C113.772519,23.2561854 113.986709,23.3997387 114.169002,23.5820312 C114.351295,23.7643238 114.494848,23.980793 114.599666,24.2314453 C114.704484,24.4820976 114.756893,24.7532537 114.756893,25.0449219 C114.756893,25.3457046 114.709042,25.6282539 114.613338,25.8925781 C114.517634,26.1569024 114.378638,26.3893219 114.196346,26.5898438 C114.014053,26.7903656 113.795305,26.9475906 113.540096,27.0615234 C113.284886,27.1754563 113.006894,27.2369791 112.706111,27.2460938 C112.405329,27.2460938 112.129615,27.195964 111.878963,27.0957031 C111.628311,26.9954422 111.411841,26.851889 111.229549,26.6650391 C111.047256,26.4781892 110.903703,26.2594414 110.798885,26.0087891 C110.694067,25.7581368 110.641658,25.4869806 110.641658,25.1953125 Z" id="SPOTTER!"></path>
                    <polygon id="underline" points="1 32 115 32 3 35"></polygon>
                </g>
            </g>
        </g>
    </g>
</svg>